<svg width="100%" height="31" viewBox="0 0 32 31" fill="none" xmlns="http://www.w3.org/2000/svg">
      <path d="M10.8687 24.3375C10.8687 24.4625 10.725 24.5625 10.5437 24.5625C10.3375 24.5812 10.1938 24.4812 10.1938 24.3375C10.1938 24.2125 10.3375 24.1125 10.5188 24.1125C10.7063 24.0938 10.8687 24.1938 10.8687 24.3375ZM8.925 24.0562C8.88125 24.1812 9.00625 24.325 9.19375 24.3625C9.35625 24.425 9.54375 24.3625 9.58125 24.2375C9.61875 24.1125 9.5 23.9688 9.3125 23.9125C9.15 23.8687 8.96875 23.9312 8.925 24.0562ZM11.6875 23.95C11.5063 23.9938 11.3812 24.1125 11.4 24.2563C11.4187 24.3813 11.5813 24.4625 11.7688 24.4188C11.95 24.375 12.075 24.2563 12.0562 24.1313C12.0375 24.0125 11.8687 23.9313 11.6875 23.95ZM15.8 0C7.13125 0 0.5 6.58125 0.5 15.25C0.5 22.1812 4.8625 28.1125 11.0938 30.2C11.8938 30.3438 12.175 29.85 12.175 29.4438C12.175 29.0562 12.1562 26.9188 12.1562 25.6063C12.1562 25.6063 7.78125 26.5437 6.8625 23.7437C6.8625 23.7437 6.15 21.925 5.125 21.4562C5.125 21.4562 3.69375 20.475 5.225 20.4937C5.225 20.4937 6.78125 20.6188 7.6375 22.1063C9.00625 24.5188 11.3 23.825 12.1938 23.4125C12.3375 22.4125 12.7438 21.7188 13.1938 21.3062C9.7 20.9187 6.175 20.4125 6.175 14.4C6.175 12.6812 6.65 11.8188 7.65 10.7188C7.4875 10.3125 6.95625 8.6375 7.8125 6.475C9.11875 6.06875 12.125 8.1625 12.125 8.1625C13.375 7.8125 14.7188 7.63125 16.05 7.63125C17.3813 7.63125 18.725 7.8125 19.975 8.1625C19.975 8.1625 22.9813 6.0625 24.2875 6.475C25.1438 8.64375 24.6125 10.3125 24.45 10.7188C25.45 11.825 26.0625 12.6875 26.0625 14.4C26.0625 20.4312 22.3813 20.9125 18.8875 21.3062C19.4625 21.8 19.95 22.7375 19.95 24.2062C19.95 26.3125 19.9312 28.9187 19.9312 29.4312C19.9312 29.8375 20.2188 30.3312 21.0125 30.1875C27.2625 28.1125 31.5 22.1812 31.5 15.25C31.5 6.58125 24.4688 0 15.8 0ZM6.575 21.5562C6.49375 21.6187 6.5125 21.7625 6.61875 21.8813C6.71875 21.9813 6.8625 22.025 6.94375 21.9438C7.025 21.8813 7.00625 21.7375 6.9 21.6187C6.8 21.5187 6.65625 21.475 6.575 21.5562ZM5.9 21.05C5.85625 21.1312 5.91875 21.2313 6.04375 21.2938C6.14375 21.3563 6.26875 21.3375 6.3125 21.25C6.35625 21.1688 6.29375 21.0688 6.16875 21.0063C6.04375 20.9688 5.94375 20.9875 5.9 21.05ZM7.925 23.275C7.825 23.3562 7.8625 23.5438 8.00625 23.6625C8.15 23.8062 8.33125 23.825 8.4125 23.725C8.49375 23.6438 8.45625 23.4562 8.33125 23.3375C8.19375 23.1938 8.00625 23.175 7.925 23.275ZM7.2125 22.3563C7.1125 22.4188 7.1125 22.5813 7.2125 22.725C7.3125 22.8687 7.48125 22.9312 7.5625 22.8687C7.6625 22.7875 7.6625 22.625 7.5625 22.4813C7.475 22.3375 7.3125 22.275 7.2125 22.3563Z" fill="white"/>
    </svg>