<svg width="30" height="29" viewBox="0 0 30 29" fill="none" xmlns="http://www.w3.org/2000/svg">
        <path d="M15.0031 7.04902C11.0281 7.04902 7.82187 10.2553 7.82187 14.2303C7.82187 18.2053 11.0281 21.4115 15.0031 21.4115C18.9781 21.4115 22.1844 18.2053 22.1844 14.2303C22.1844 10.2553 18.9781 7.04902 15.0031 7.04902ZM15.0031 18.899C12.4344 18.899 10.3344 16.8053 10.3344 14.2303C10.3344 11.6553 12.4281 9.56153 15.0031 9.56153C17.5781 9.56153 19.6719 11.6553 19.6719 14.2303C19.6719 16.8053 17.5719 18.899 15.0031 18.899ZM24.1531 6.75527C24.1531 7.68652 23.4031 8.43028 22.4781 8.43028C21.5469 8.43028 20.8031 7.68027 20.8031 6.75527C20.8031 5.83027 21.5531 5.08027 22.4781 5.08027C23.4031 5.08027 24.1531 5.83027 24.1531 6.75527ZM28.9094 8.45528C28.8031 6.21152 28.2906 4.22402 26.6469 2.58652C25.0094 0.949023 23.0219 0.436523 20.7781 0.324023C18.4656 0.192773 11.5344 0.192773 9.22188 0.324023C6.98438 0.430273 4.99687 0.942774 3.35313 2.58027C1.70938 4.21777 1.20312 6.20527 1.09062 8.44903C0.959375 10.7615 0.959375 17.6928 1.09062 20.0053C1.19688 22.249 1.70938 24.2365 3.35313 25.874C4.99687 27.5115 6.97813 28.024 9.22188 28.1365C11.5344 28.2678 18.4656 28.2678 20.7781 28.1365C23.0219 28.0303 25.0094 27.5178 26.6469 25.874C28.2844 24.2365 28.7969 22.249 28.9094 20.0053C29.0406 17.6928 29.0406 10.7678 28.9094 8.45528ZM25.9219 22.4865C25.4344 23.7115 24.4906 24.6553 23.2594 25.149C21.4156 25.8803 17.0406 25.7115 15.0031 25.7115C12.9656 25.7115 8.58437 25.874 6.74687 25.149C5.52187 24.6615 4.57813 23.7178 4.08438 22.4865C3.35313 20.6428 3.52188 16.2678 3.52188 14.2303C3.52188 12.1928 3.35938 7.81153 4.08438 5.97402C4.57188 4.74902 5.51562 3.80527 6.74687 3.31152C8.59062 2.58027 12.9656 2.74902 15.0031 2.74902C17.0406 2.74902 21.4219 2.58652 23.2594 3.31152C24.4844 3.79902 25.4281 4.74277 25.9219 5.97402C26.6531 7.81778 26.4844 12.1928 26.4844 14.2303C26.4844 16.2678 26.6531 20.649 25.9219 22.4865Z" fill="white"/>
    </svg>