<svg width="81" height="85" viewBox="0 0 81 85" fill="none" xmlns="http://www.w3.org/2000/svg">
<path d="M69.0626 24.742C68.6302 23.9131 67.9955 23.2207 67.2241 22.7363L42.6877 7.8167C41.8926 7.38182 41.0098 7.15479 40.1137 7.15479C39.2177 7.15479 38.3349 7.38182 37.5398 7.8167L13.0034 22.7363C12.2516 23.2445 11.6259 23.9343 11.1783 24.7483C10.7306 25.5622 10.4739 26.4769 10.4294 27.4162V57.2553C10.4537 58.1982 10.7069 59.1189 11.1649 59.9296C11.5972 60.7585 12.2319 61.4509 13.0034 61.9353L37.5398 76.8549C38.3349 77.2897 39.2177 77.5168 40.1137 77.5168C41.0098 77.5168 41.8926 77.2897 42.6877 76.8549L67.2241 61.9353C67.9955 61.4509 68.6302 60.7585 69.0626 59.9296C69.5206 59.1189 69.7738 58.1982 69.798 57.2553V27.4162C69.7738 26.4733 69.5206 25.5527 69.0626 24.742V24.742ZM40.1137 63.1669C36.6503 63.1506 33.2516 62.1777 30.2572 60.3456C27.2629 58.5135 24.7777 55.8862 23.0502 52.7263C21.3226 49.5665 20.4132 45.9847 20.4127 42.339C20.4122 38.6932 21.3207 35.1111 23.0474 31.9508C24.7741 28.7904 27.2585 26.1624 30.2523 24.3293C33.2462 22.4963 36.6447 21.5225 40.1081 21.5051C43.5715 21.4878 46.9786 22.4276 49.9889 24.2305C52.9992 26.0335 55.5073 28.6365 57.2624 31.7795L53.485 34.2778L52.2816 34.9816L48.9388 37.128C47.8715 35.0447 46.17 33.3994 44.1076 32.4563C42.0452 31.5133 39.7415 31.3272 37.5666 31.928C35.3916 32.5287 33.4716 33.8815 32.1148 35.769C30.758 37.6565 30.0432 39.9693 30.0853 42.3358C30.0758 44.167 30.5379 45.9667 31.4224 47.5436C32.3163 49.0948 33.5749 50.3773 35.0768 51.2674C36.5787 52.1575 38.2732 52.6251 39.9967 52.6251C41.7203 52.6251 43.4148 52.1575 44.9167 51.2674C46.4186 50.3773 47.6772 49.0948 48.5711 47.5436L57.2624 52.8921C55.5027 56.0294 52.9944 58.6281 49.9864 60.4304C46.9783 62.2327 43.5749 63.1761 40.1137 63.1669ZM59.9033 43.497H57.697V45.8545H55.5242V43.5322H53.485V41.2098H55.6913V38.817H57.8641V41.1394H60.0704L59.9033 43.497ZM68.16 43.497H65.9538V45.8545H63.7475V43.5322H61.5747V41.2098H63.7475V38.817H65.9538V41.1394H68.16V43.497Z" fill="white"/>
</svg>