<svg xmlns="http://www.w3.org/2000/svg" width="255" height="89" fill="none" viewBox="0 0 255 89">
  <path fill="white" d="M30.3 58.1V39.4h27.4v-1H30.3V21.1h29v-1H29v39h30.6v-1H30.3Zm54-27L73 43.8 61.9 31.1h-1.7l12 13.6-13.1 14.5h1.5L73 45.5l12.4 13.7H87L73.8 44.7l12-13.6h-1.5ZM91 68.9V51.3c.9 2.6 2.4 4.7 4.6 6.2a15 15 0 0 0 8.7 2.3c2.3 0 4.3-.4 6-1.1 1.8-.8 3.2-1.9 4.4-3.2 1.2-1.4 2-3 2.7-4.8a17.3 17.3 0 0 0 0-11.5 12.6 12.6 0 0 0-7.2-7.7 16.4 16.4 0 0 0-10.5-.5 13.2 13.2 0 0 0-6.7 4.5c-.9 1-1.5 2.2-2 3.5v-8h-1.3V69h1.3Zm13.3-10.1c-4 0-7.2-1.2-9.7-3.5C92.1 52.9 91 49.5 91 45c0-1.8.3-3.6.9-5.2a12.3 12.3 0 0 1 6.8-7.3 14 14 0 0 1 5.6-1c2.1 0 4 .3 5.6 1 1.6.7 3 1.7 4 3s1.8 2.7 2.4 4.3a16.5 16.5 0 0 1-2.3 14.5 11.8 11.8 0 0 1-9.7 4.4Zm21 .4v-16c0-1.4.3-3 .9-4.4a10.6 10.6 0 0 1 6.4-6.5c1.6-.6 3.6-.9 5.9-.8v-1c-2-.1-3.7 0-5.2.5-1.5.4-2.7 1-3.8 1.6a9 9 0 0 0-4 5.4h-.1v-7H124v28.2h1.3ZM140 45.4h27.5c.1-2-.1-3.8-.6-5.6a12.7 12.7 0 0 0-7.1-8.1 16 16 0 0 0-6.7-1.3c-1.8 0-3.6.3-5.4 1A13.5 13.5 0 0 0 140 39c-.8 1.8-1.2 4-1.2 6.3 0 2 .3 4 .8 5.8.6 1.8 1.4 3.4 2.6 4.7 1.1 1.3 2.6 2.4 4.4 3.1 1.9.7 4 1 6.6 1 3.8 0 7-.9 9.5-2.7 2.6-1.8 4-4.3 4.6-7.6h-1.3c-.6 3-2 5.4-4.3 7a15 15 0 0 1-8.6 2.3c-2.4 0-4.4-.3-6-1a10.6 10.6 0 0 1-6.2-7.1c-.5-1.7-.8-3.4-.8-5.3Zm26.3-1.1H140c.1-2 .5-3.8 1.3-5.3a12 12 0 0 1 7-6.6c1.5-.6 3.1-.9 5-.9 2 0 4 .4 5.6 1a11.5 11.5 0 0 1 6.5 6.9c.6 1.5.9 3.2.9 4.9Zm27.8-4.9h1.3c0-3.1-1-5.4-3.2-6.8-2.1-1.5-5-2.2-8.7-2.2-2 0-3.8.2-5.2.7a11 11 0 0 0-3.5 1.7c-.9.7-1.5 1.4-1.9 2.3a6.3 6.3 0 0 0 .4 6c.6 1 1.6 1.7 3 2.2l3.2 1A124.9 124.9 0 0 0 188 46c1.3.3 2.5.7 3.6 1.2 1 .5 1.9 1 2.5 1.9.7.7 1 1.7 1 3 0 1.2-.3 2.2-1 3-.6.9-1.5 1.6-2.5 2-1 .6-2.2 1-3.4 1.2-1.3.3-2.5.4-3.7.4-3.9 0-6.9-.7-9-2.2-2-1.5-3-3.8-3-7H171c0 3.5 1 6.1 3.3 7.8 2.3 1.6 5.6 2.4 10 2.4 1.4 0 2.8-.1 4.3-.4a13 13 0 0 0 3.8-1.3c1.1-.6 2-1.4 2.8-2.4a6 6 0 0 0 1-3.6c0-1.4-.3-2.5-1-3.3a7.3 7.3 0 0 0-2.3-2.1c-1-.6-2.2-1-3.4-1.3a226.3 226.3 0 0 0-8.6-2c-1.3-.2-2.6-.6-3.7-1s-2-1-2.7-1.7c-.6-.8-1-1.8-1-3.2l.3-1.4c.2-.6.6-1.3 1.2-2s1.6-1.3 3-1.8a19.8 19.8 0 0 1 9.8-.4c1.2.3 2.3.8 3.3 1.5 1 .6 1.7 1.4 2.2 2.4.5 1 .7 2.2.7 3.6Zm29.7 0h1.3c0-3.1-1-5.4-3.2-6.8-2.1-1.5-5-2.2-8.7-2.2-2 0-3.8.2-5.2.7a11 11 0 0 0-3.5 1.7c-.9.7-1.5 1.4-1.9 2.3a6.3 6.3 0 0 0 .4 6c.6 1 1.6 1.7 3 2.2l3.2 1a124.9 124.9 0 0 0 8.3 1.8c1.4.3 2.6.7 3.7 1.2 1 .5 1.9 1 2.5 1.9.7.7 1 1.7 1 3 0 1.2-.3 2.2-1 3-.6.9-1.5 1.6-2.5 2-1 .6-2.2 1-3.4 1.2-1.3.3-2.5.4-3.7.4-4 0-6.9-.7-9-2.2-2-1.5-3-3.8-3-7h-1.4c0 3.5 1.2 6.1 3.4 7.8 2.3 1.6 5.6 2.4 10 2.4 1.4 0 2.8-.1 4.2-.4a13 13 0 0 0 3.9-1.3c1.1-.6 2-1.4 2.7-2.4A6 6 0 0 0 226 52c0-1.4-.3-2.5-1-3.3a7.3 7.3 0 0 0-2.4-2.1c-1-.6-2.1-1-3.4-1.3a226.4 226.4 0 0 0-8.5-2c-1.3-.2-2.6-.6-3.7-1-1.2-.4-2-1-2.7-1.7-.7-.8-1-1.8-1-3.2 0-.3 0-.7.3-1.4.1-.6.5-1.3 1.2-2 .6-.7 1.6-1.3 3-1.8a19.8 19.8 0 0 1 9.8-.4c1.2.3 2.3.8 3.3 1.5 1 .6 1.6 1.4 2.2 2.4.5 1 .7 2.2.7 3.6Z"/>
</svg>