<svg width="100" height="100" viewBox="0 0 63 64" fill="none" xmlns="http://www.w3.org/2000/svg">
<path d="M26.6138 19.7994H16.8574C11.9355 18.4881 0.801035 18.8294 0.801035 29.1481C0.801035 32.9094 2.64674 35.5519 5.10768 36.7731C2.0192 39.6481 0.554941 41.0044 0.554941 42.9244C0.554941 44.2994 1.10496 45.5669 2.75625 46.2757C1.00037 47.9519 0 49.1694 0 51.4569C0 55.4706 3.45146 57.8094 12.5053 57.8094C21.2108 57.8094 26.2607 54.5069 26.2607 48.6619C26.2607 41.3294 20.7039 41.5994 7.60307 40.7869L9.25559 38.0931C12.6111 39.0406 23.8612 39.3431 23.8612 29.6069C23.8612 27.2694 22.9101 25.6431 22.0155 24.4731L26.6187 24.1181L26.6138 19.7994ZM18.8102 50.0369C18.8102 54.0444 5.90379 54.0494 5.90379 50.3407C5.90379 49.3231 6.55225 48.4656 7.20439 47.6481C16.7664 48.3106 18.8102 48.0694 18.8102 50.0369ZM12.5582 33.2144C6.06129 33.2144 6.34922 24.3194 12.7058 24.3194C18.8016 24.3194 18.9591 33.2144 12.5582 33.2144ZM28.9603 45.7781V41.7656C32.2518 41.3081 32.3121 41.5156 32.3121 40.3906V25.4519C32.3121 24.3894 32.0599 24.5294 28.9603 23.4194L29.5103 19.3044H39.8672V40.3932C39.8672 41.2069 39.9164 41.3081 40.6682 41.4106L43.219 41.7656V45.7781H28.9603ZM35.4141 15.2394C32.5631 15.2394 30.9118 13.5606 30.9118 10.6631C30.9118 7.76565 32.5631 6.19189 35.4141 6.19189C38.3156 6.19189 39.9669 7.7694 39.9669 10.6631C39.9669 13.5569 38.3156 15.2394 35.4141 15.2394ZM63 43.8081C60.8479 44.8744 57.6967 45.8406 54.8445 45.8406C48.8914 45.8406 46.6409 43.4032 46.6409 37.6581V24.3444C46.6409 23.6669 46.7701 23.8369 42.7391 23.8369V19.3131C47.1417 18.8044 48.8914 16.5631 49.4415 11.0294H54.1948C54.1948 19.2581 54.0299 18.7556 54.5959 18.7556H61.6465V23.8369H54.1948V35.9806C54.1948 36.8456 53.5894 42.4069 61.6477 39.3356L63 43.8081Z" fill="white"/>
</svg>