<svg
      width="93"
      height="94"
      viewBox="0 0 93 94"
      fill="none"
      xmlns="http://www.w3.org/2000/svg"
    >
      <path
        fillRule="evenodd"
        clipRule="evenodd"
        d="M44.1129 16.3987C45.5892 16.8498 47.1611 16.8743 48.6505 16.4692L73.1637 60.2653C72.0288 61.3705 71.2313 62.7814 70.8659 64.3308H22.1261C21.7339 62.7041 20.8704 61.2326 19.6461 60.1048L44.109 16.3987H44.1129ZM40.544 14.1858C40.6137 14.2641 40.6912 14.3385 40.7649 14.4129L16.2477 58.2208C16.1321 58.1895 16.0158 58.1608 15.899 58.1347V35.8606C17.0137 35.6085 18.0642 35.1245 18.9835 34.4394C19.9029 33.7543 20.6709 32.883 21.2387 31.8813C21.8042 30.8852 22.1613 29.7823 22.288 28.6411C22.4146 27.4998 22.3081 26.3444 21.975 25.2464L40.544 14.1897V14.1858ZM54.3777 10.9153C54.7705 9.66905 54.8684 8.34699 54.6635 7.0555C54.4586 5.76401 53.9567 4.53914 53.1982 3.47942C52.4397 2.4197 51.4457 1.55471 50.2961 0.954028C49.1466 0.353345 47.8736 0.0337356 46.5796 0.0209097C45.2856 0.00808382 44.0067 0.302399 42.8457 0.880182C41.6847 1.45796 40.6741 2.30309 39.8952 3.34757C39.1162 4.39205 38.5907 5.60673 38.3608 6.89391C38.1309 8.18109 38.2031 9.50484 38.5716 10.7587L19.991 21.8272C19.0993 20.9029 18.0077 20.2002 16.8019 19.7745C15.5961 19.3488 14.3091 19.2116 13.042 19.3737C11.7748 19.5357 10.5622 19.9927 9.49935 20.7086C8.43652 21.4246 7.55248 22.3799 6.91674 23.4996C6.28179 24.6207 5.91105 25.8746 5.83328 27.164C5.75552 28.4533 5.97283 29.7435 6.46834 30.9342C6.96385 32.1249 7.72423 33.1842 8.69043 34.0297C9.65663 34.8753 10.8026 35.4844 12.0395 35.8097V58.1934C10.8053 58.5219 9.6625 59.133 8.69941 59.9794C7.73632 60.8258 6.97879 61.8848 6.48543 63.0745C5.99207 64.2642 5.77612 65.5526 5.85427 66.8402C5.93241 68.1277 6.30258 69.3798 6.93611 70.4996C7.57098 71.6166 8.45313 72.5698 9.51344 73.2845C10.5737 73.9992 11.7834 74.456 13.0476 74.6192C14.3118 74.7823 15.5962 74.6473 16.8002 74.2248C18.0042 73.8023 19.095 73.1037 19.9871 72.1838L38.5677 83.2523C38.3457 84.0221 38.2334 84.82 38.2345 85.6218C38.2384 90.2553 41.9274 93.9996 46.4999 93.9996C47.8228 93.9967 49.1258 93.6736 50.2999 93.0573C51.474 92.4411 52.485 91.5496 53.2483 90.4575C54.0117 89.3653 54.5051 88.1043 54.6875 86.7799C54.8698 85.4555 54.7357 84.1062 54.2964 82.8449L72.7065 71.8783C73.5743 72.8696 74.6632 73.6377 75.8831 74.1191C77.103 74.6006 78.4188 74.7814 79.7215 74.6466C81.0243 74.5119 82.2766 74.0655 83.3747 73.3443C84.4729 72.6232 85.3853 71.648 86.0365 70.4996C86.6893 69.3614 87.0676 68.0838 87.1408 66.7703C87.2139 65.4568 86.9799 64.1443 86.4576 62.9393C85.9352 61.7343 85.1394 60.6706 84.1344 59.8345C83.1295 58.9984 81.9438 58.4134 80.6735 58.1268V35.8802C81.9449 35.5932 83.1319 35.0085 84.1389 34.1731C85.1458 33.3377 85.9446 32.2749 86.4709 31.0704C86.9972 29.8659 87.2363 28.5533 87.1689 27.2383C87.1015 25.9233 86.7296 24.6427 86.083 23.4996C85.4395 22.3702 84.5435 21.4087 83.4666 20.6919C82.3898 19.9751 81.1619 19.5229 79.8813 19.3714C78.6006 19.2199 77.3026 19.3734 76.0911 19.8195C74.8796 20.2657 73.7882 20.9921 72.9041 21.9408L54.3816 10.9114L54.3777 10.9153ZM52.0566 14.5853L52.3472 14.3033L70.9782 25.3992C70.6745 26.4773 70.5876 27.6061 70.7227 28.7187C70.8578 29.8314 71.2122 30.9054 71.7649 31.8773C72.3064 32.8368 73.0319 33.6775 73.8989 34.35C74.7659 35.0225 75.7569 35.5135 76.814 35.794V58.1973C76.7127 58.2254 76.6119 58.2554 76.5117 58.2874L52.0566 14.5853V14.5853ZM71.0247 68.8624L52.5255 79.8839C51.7546 79.0499 50.8222 78.3852 49.7862 77.931C48.7503 77.4769 47.6329 77.243 46.5037 77.2441C44.1555 77.2441 42.0397 78.2311 40.5362 79.8213L21.9944 68.7763C22.0409 68.6235 22.0835 68.4708 22.1184 68.3141H70.8736C70.9201 68.4982 70.9705 68.6823 71.0286 68.8624H71.0247Z"
        fill="white"
      />
    </svg>