<svg
      width="103"
      height="104"
      viewBox="0 0 103 104"
      fill="none"
      xmlns="http://www.w3.org/2000/svg"
    >
      <path
        fillRule="evenodd"
        clipRule="evenodd"
        d="M11.4446 9.76465H94.2806V92.6006H11.4446V9.76465ZM74.7692 79.2088C70.9277 79.2088 68.7567 77.2069 67.0896 74.4803L60.7631 78.1561C63.0479 82.6707 67.7178 86.1153 74.9487 86.1153C82.3418 86.1153 87.847 82.2772 87.847 75.2672C87.847 68.768 84.1124 65.8791 77.4994 63.0385L75.5527 62.2067C72.2117 60.7571 70.7655 59.8148 70.7655 57.4782C70.7655 55.5902 72.2151 54.144 74.4931 54.144C76.7262 54.144 78.1655 55.0863 79.5012 57.4782L85.5621 53.5883C82.9976 49.0772 79.4426 47.3549 74.4931 47.3549C67.5418 47.3549 63.0928 51.8005 63.0928 57.6404C63.0928 63.9739 66.8204 66.9732 72.4395 69.3651L74.3861 70.2004C77.9377 71.7536 80.0535 72.6993 80.0535 75.3673C80.0535 77.597 77.9929 79.2088 74.7692 79.2088V79.2088ZM44.6031 79.157C41.9282 79.157 40.8134 77.3277 39.5916 75.1533L33.2546 78.9914C35.0908 82.8778 38.7011 86.1015 44.931 86.1015C51.8306 86.1015 56.5557 82.4325 56.5557 74.3733V47.7967H48.7725V74.2697C48.7725 78.1596 47.1572 79.157 44.5997 79.157H44.6031Z"
        fill="white"
      />
    </svg>