<svg
      width="90"
      height="89"
      viewBox="0 0 90 89"
      fill="none"
      xmlns="http://www.w3.org/2000/svg"
    >
      <g clipPath="url(#clip0_211_211)">
        <path
          d="M33.3094 68.5691C33.3094 68.5691 29.9177 70.5448 35.7174 71.2071C42.7447 72.0162 46.3388 71.9026 54.0755 70.4284C54.0755 70.4284 56.1066 71.7142 58.9525 72.8254C41.592 80.26 19.6676 72.3792 33.3066 68.5691H33.3094ZM31.184 58.8705C31.184 58.8705 27.3739 61.6831 33.1764 62.2733C40.6997 63.0519 46.6131 63.1268 56.8742 61.151C56.8742 61.151 58.2902 62.5809 60.5292 63.3706C39.5442 69.5029 16.1623 63.8472 31.1868 58.8705H31.184ZM49.0655 42.405C53.3356 47.3264 47.9376 51.7572 47.9376 51.7572C47.9376 51.7572 58.7918 46.1404 53.8122 39.1297C49.1541 32.5762 45.574 29.3313 64.9102 18.1142C64.9102 18.1142 34.5591 25.693 49.0627 42.4078L49.0655 42.405ZM72.0151 75.7571C72.0151 75.7571 74.5284 77.8187 69.2579 79.4232C59.2407 82.4519 27.5623 83.3608 18.7587 79.5368C15.5998 78.1651 21.5298 76.2476 23.3919 75.8569C25.3399 75.4246 26.4511 75.5132 26.4511 75.5132C22.9291 73.0304 3.70651 80.3764 16.6832 82.4824C52.0859 88.2267 81.2066 79.8998 72.0151 75.7571V75.7571ZM34.9388 48.8116C34.9388 48.8116 18.8197 52.6357 29.2221 54.0212C33.6253 54.6114 42.3873 54.4839 50.5563 53.7912C57.2206 53.2259 63.9209 52.0288 63.9209 52.0288C63.9209 52.0288 61.5683 53.0374 59.8641 54.2096C43.4957 58.5102 11.8783 56.504 20.9839 52.1036C28.6762 48.3932 34.9388 48.8116 34.9388 48.8116V48.8116ZM63.8461 64.975C80.4723 56.3156 72.7799 48.0164 67.4263 49.1442C66.11 49.4019 65.5198 49.6513 65.5198 49.6513C65.5198 49.6513 65.9964 48.8837 66.9358 48.5539C77.5572 44.8158 85.7261 59.5632 63.5136 65.4101C63.5136 65.3962 63.7768 65.1801 63.8461 64.9778V64.975ZM53.815 0C53.815 0 63.0259 9.20812 45.0696 23.3792C30.6825 34.7514 41.7915 41.2329 45.0696 48.6371C36.6707 41.0583 30.5079 34.394 34.6367 28.1869C40.7108 19.0508 57.5254 14.6338 53.815 0ZM36.5681 88.3985C52.532 89.4072 77.0501 87.8221 77.6458 80.2739C77.6458 80.2739 76.518 83.1308 64.4363 85.4086C50.814 87.9773 33.9994 87.6725 24.0265 86.0293C24.0265 86.0293 26.077 87.7168 36.5654 88.3985H36.5681Z"
          fill="white"
        />
      </g>
      <defs>
        <clipPath id="clip0_211_211">
          <rect
            width="88.6729"
            height="88.6729"
            fill="white"
            transform="translate(0.603149)"
          />
        </clipPath>
      </defs>
    </svg>