<svg xmlns="http://www.w3.org/2000/svg" width="89" height="107" fill="none" viewBox="0 0 70 82">
      <path fill="white" d="M62.5 57.1c.8.3 1.5.9 2 1.5.4.7.7 1.4.9 2.3 0 .6.2 1 .3 1.5a9 9 0 0 0 2.1 3.7c.4.4.7.8 1 1.4.2.5.4 1.1.4 1.7 0 .6-.2 1.1-.5 1.6-.4.4-.8.8-1.2 1-.6.5-1.3.9-2 1.2a61.2 61.2 0 0 0-4.9 2.7c-.8.5-1.6 1.3-2.4 2.2-1 1-2 2-3.2 2.7l-2 .8-2 .4c-1.6 0-2.9-.3-3.9-.8s-2-1.5-2.7-3l-.6-.7a4 4 0 0 0-1-.3l-4.1-.3a54.3 54.3 0 0 0-7.6.1l-3.6.7c-.2 0-.4.3-.7.6l-1 1.2c-.5.5-1 .8-1.7 1.1-1 .4-2 .5-2.9.5-.9 0-1.8 0-2.9-.3-1-.1-1.9-.4-2.7-.9-1.6-.8-3.2-1.3-5-1.7a107 107 0 0 0-6.9-1 4 4 0 0 1-1.5-.7c-.4-.3-.7-.7-1-1.2a4 4 0 0 1-.4-1.8c0-.8.1-1.6.4-2.3a10 10 0 0 0 .2-4.2L1.2 65c0-1.3.4-2.3 1-3C3 61.4 3.8 61 5 60.5l1.6-.7a11.7 11.7 0 0 0 2.2-2.3L10 56l.1-.3v-2c0-1.7.2-3.5.8-5.4a46.2 46.2 0 0 1 8.6-15c1.5-1.8 2.7-3.8 3.5-6a20.7 20.7 0 0 0 1-10.1V14c0-2.1.2-4 .7-5.8.4-1.7 1.2-3.1 2.2-4.3 1-1.3 2.4-2.2 4-2.8 1.7-.6 3.6-1 6-1 2.6 0 4.8.5 6.4 1.6 1.6 1 2.9 2.5 3.7 4.2a17 17 0 0 1 1.7 5.8c.2 2 .4 4.2.4 6.4V22a12.7 12.7 0 0 0 3 7.6l3.9 5c1.3 1.7 2.5 3.5 3.6 5.3 1.2 1.8 2 3.7 2.8 5.6.7 2 1 4.1 1 6.4 0 1.8-.2 3.6-.8 5.3ZM28.6 15.6c.4 0 .7 0 1 .3l.5.7.3 1v1.6l-.4.5-.5.4-.5.4-.8.8a11 11 0 0 0-1.7 1.2 1.3 1.3 0 0 0-.4 1c0 .3.2.5.4.6.6.4 1 1 1.4 1.6l.9 1.8c.3.6.7 1 1.2 1.4.5.4 1.3.6 2.4.6h.2c1.1 0 2.1-.3 3.1-.8a74.6 74.6 0 0 0 4-2.1l3-2.3a4.7 4.7 0 0 0 .1-1c0-.3 0-.6-.2-.8a1.8 1.8 0 0 0-1.2-.8l-.7-.1-1.8-.7c-.6-.4-1.1-.7-1.8-.8 0 0-.2-.1-.2-.3a5 5 0 0 1-.2-.5v-1.9c0-.3.2-.7.4-1 .1-.3.4-.5.6-.7.3-.2.7-.3 1-.3 1 0 1.5.3 1.9 1 .4.6.6 1.2.6 2 0 .3 0 .6-.2.9a2 2 0 0 0-.2.8c0 .2 0 .4.2.5l.5.1c.7 0 1-.1 1.2-.4.3-.4.4-.9.4-1.3 0-.6 0-1.3-.2-2 0-.8-.3-1.5-.6-2.1a5 5 0 0 0-1.3-1.6 3 3 0 0 0-2-.7c-1.4 0-2.4.4-3 1-.6.8-1 1.8-1 3.2l.1 1.2a9.4 9.4 0 0 1 0 1.4l-.2-.1a22.4 22.4 0 0 1-1-.4H32c-.4 0-.6 0-.6-.2v-1.5c0-.6-.2-1.2-.4-1.9a5 5 0 0 0-.8-1.5c-.4-.4-.9-.6-1.5-.6-.4 0-.9.1-1.2.4l-.8 1c-.3.5-.4 1-.5 1.4l-.1 1.3a7.4 7.4 0 0 0 .8 3.2c.1.3.3.5.6.5l.5-.3.3-.5-.1-.2H28c-.2 0-.3-.1-.5-.3l-.3-.6-.2-.8c-.2-.7 0-1.4.3-2 .2-.5.7-.7 1.3-.7Zm-8.8 62 1.9-.1a5 5 0 0 0 1.7-.7c.5-.2 1-.7 1.2-1.2.3-.6.5-1.2.5-1.9 0-.5 0-1-.2-1.4l-.7-1.3-1-1.4-1.1-1.4a320.3 320.3 0 0 1-6.7-9.7c-.4-.3-1-.5-1.5-.5s-1 .2-1.5.6c-.5.4-1 .9-1.3 1.4l-1.6 1.5a6 6 0 0 1-2.2 1.2c-.6.2-1.1.5-1.6.9-.3.4-.5 1-.5 1.7v1.6c.2.5.2 1 .2 1.6 0 .7 0 1.4-.3 2-.2.6-.3 1.2-.3 1.9s.3 1.2.8 1.5c.5.3 1 .5 1.7.6a41 41 0 0 0 4.4.7 66.3 66.3 0 0 1 4.4 1.4l.7.2 1 .4a10.3 10.3 0 0 0 2 .4ZM34.6 73l2.4-.3a18.5 18.5 0 0 0 7.2-3l.1-.2.1-.4.4-2a43.5 43.5 0 0 0 .6-4.1 63.4 63.4 0 0 0 .7-4.1l.6-2 1.1-1.5a8 8 0 0 1 1.8-1.2v-.2c0-.3 0-.6.2-.8l.6-.8.8-.7.8-.4a49.5 49.5 0 0 0-1-3.8 35.9 35.9 0 0 0-1-4.3l-1-1.6a86.2 86.2 0 0 0-2-2.7l-.3-1-.2-1a47.9 47.9 0 0 0-2.2-5.9l-.9-1.4c-.2-.4-.5-.6-.8-.6-.7 0-1.4.2-2.3.7a97.5 97.5 0 0 0-5.8 3.4 5 5 0 0 1-2.5.8c-.8 0-1.6-.3-2.2-.8-.7-.5-1.3-1-1.9-1.7a60.6 60.6 0 0 1-2.3-2.6c-.2 0-.3.2-.3.5V31l-.1.3a112 112 0 0 0-2 3.6 8.1 8.1 0 0 0-1.1 5c0 .4.2.8.4 1.2v.2l-.8.8-.7.8c-1 1.4-1.7 3-2 4.7a23.9 23.9 0 0 0-.6 8.4v.4a4 4 0 0 1 1.6.6 19.8 19.8 0 0 1 7.2 7.1c.3.7.5 1.2.5 1.7a2.2 2.2 0 0 1-.6 1.6 5 5 0 0 1-1.6 1c.4.9 1 1.6 1.7 2.1a9.2 9.2 0 0 0 4.7 2.1l2.7.3Zm16.2 5.6c.5 0 1.1 0 1.6-.2a8.6 8.6 0 0 0 4.3-2.7c1.4-1.6 3.1-3 5-3.9l1.4-.6 1.3-.6.9-.7a1.3 1.3 0 0 0 .4-1c0-.2 0-.4-.2-.6a26.2 26.2 0 0 1-2.2-3.7l-.6-1.5a13 13 0 0 1-.6-1.8l-.2-.5a2.7 2.7 0 0 0-2.4-1.2c-.5 0-1 0-1.4.3l-1.4.8-1.4.7c-.5.3-1 .4-1.6.4-.4 0-1-.1-1.3-.4-.4-.3-.7-.6-.9-1l-.6-1.4-.5-1.3-.7 1-.7 1c-.3.8-.5 1.7-.6 2.7l-.5 4.5c-.2 1.5-.6 3-1.1 4.4a14.5 14.5 0 0 0-.5 2.9c0 1.2.4 2.3 1.2 3.2.8.8 2 1.2 3.3 1.2Z"/>
  </svg>