<svg
      width="231"
      height="68"
      viewBox="0 0 231 68"
      fill="none"
      xmlns="http://www.w3.org/2000/svg"
    >
      <g clipPath="url(#clip0_204_162)">
        <path
          fillRule="evenodd"
          clipRule="evenodd"
          d="M215.08 28.2469C214.872 28.2891 214.664 28.7549 214.664 29.0087C214.622 30.7029 214.581 35.1919 214.581 38.2409C214.581 38.3258 214.706 38.4951 214.83 38.4951C215.455 38.5373 216.954 38.5796 218.244 38.5796C220.035 38.5796 221.076 38.3258 221.659 38.072C223.157 37.3093 223.865 35.6577 223.865 33.8363C223.865 29.7291 221.034 28.162 216.829 28.162C216.537 28.1198 215.705 28.1198 215.08 28.2469V28.2469ZM225.822 47.1767C225.822 42.9841 222.783 40.6547 217.287 40.6547C217.037 40.6547 215.288 40.6125 214.872 40.6969C214.747 40.7396 214.581 40.8245 214.581 40.9516C214.581 43.9579 214.539 48.7438 214.664 50.607C214.747 51.4114 215.33 52.555 216.038 52.8937C216.787 53.3173 218.494 53.4017 219.66 53.4017C222.949 53.4017 225.822 51.5385 225.822 47.1767V47.1767ZM206.587 25.9179C207.003 25.9179 208.252 26.0446 211.458 26.0446C214.498 26.0446 216.912 25.9602 219.868 25.9602C223.49 25.9602 228.487 27.2726 228.487 32.7781C228.487 35.4884 226.613 37.6484 224.157 38.7071C224.032 38.7494 224.032 38.8338 224.157 38.876C227.654 39.7658 230.735 41.9676 230.735 46.1175C230.735 50.1834 228.237 52.7666 224.615 54.376C222.408 55.3497 219.66 55.6884 216.871 55.6884C214.747 55.6884 209.043 55.4346 205.879 55.5195C205.546 55.392 206.171 53.8675 206.462 53.6137C207.212 53.571 207.794 53.5288 208.585 53.2746C209.71 52.9786 209.834 52.6395 210.001 50.9034C210.084 49.4212 210.084 44.1695 210.084 40.4432C210.084 35.319 210.126 31.8465 210.084 30.1527C210.043 28.8402 209.585 28.4162 208.669 28.162C207.96 28.0353 206.795 27.8655 205.837 27.7389C205.629 27.5269 206.337 26.0868 206.587 25.9179ZM182.563 52.2586C183.563 53.0626 185.52 53.4012 187.268 53.4012C189.517 53.4012 191.765 52.9786 193.93 50.9874C196.137 48.9554 197.677 45.8215 197.677 40.8245C197.677 36.0386 195.887 32.1425 192.223 29.8563C190.141 28.5429 187.476 27.9931 184.395 27.9931C183.479 27.9931 182.605 28.0353 182.064 28.2891C181.939 28.374 181.648 28.7549 181.648 28.9664C181.564 29.8136 181.564 36.3351 181.564 40.1467C181.564 44.085 181.564 49.5905 181.648 50.2256C181.648 50.8612 181.939 51.835 182.564 52.2586H182.563ZM173.112 25.9175C173.903 25.9175 176.942 26.0446 178.4 26.0446C181.023 26.0446 182.897 25.9179 187.851 25.9179C192.014 25.9179 195.512 27.0611 198.01 29.2207C201.049 31.8887 202.632 35.5733 202.632 40.0618C202.632 46.4566 199.759 50.1412 196.886 52.2586C194.013 54.4182 190.266 55.6884 184.937 55.6884C182.106 55.6884 177.234 55.604 173.195 55.5613H173.154C172.946 55.1804 173.487 53.6982 173.82 53.6559C174.903 53.5288 175.194 53.4861 175.736 53.275C176.609 52.9359 176.776 52.4701 176.901 50.9034C177.026 47.9811 176.984 44.4664 176.984 40.4854C176.984 37.6484 177.026 32.1003 176.942 30.3216C176.818 28.8398 176.193 28.4584 174.944 28.2042C174.32 28.0775 173.487 27.9077 172.322 27.7811C172.155 27.4842 172.904 26.1717 173.112 25.9179V25.9175Z"
          fill="white"
        />
        <path
          fillRule="evenodd"
          clipRule="evenodd"
          d="M122.734 53.9093C121.693 53.7822 120.943 53.6133 120.028 53.1897C119.903 53.1048 119.694 52.6817 119.694 52.5119C119.611 51.0297 119.611 46.7949 119.611 43.9579C119.611 41.6708 119.237 39.6805 118.279 38.2831C117.154 36.6733 115.531 35.7422 113.449 35.7422C111.617 35.7422 109.161 37.0124 107.12 38.7911C107.079 38.8334 106.746 39.1303 106.787 38.664C106.787 38.1982 106.871 37.2667 106.912 36.6311C106.954 36.0382 106.621 35.7422 106.621 35.7422C105.289 36.4195 101.542 37.3089 100.167 37.4355C99.1685 37.648 98.9185 38.6218 99.9598 38.9605H100.001C101.125 39.2992 101.875 39.6805 102.457 40.0619C102.874 40.4005 102.832 40.8663 102.832 41.2477C102.874 44.4233 102.874 49.2936 102.749 51.9617C102.707 53.0204 102.416 53.4013 101.666 53.5706L101.75 53.5284C101.167 53.6555 100.709 53.7822 100.001 53.8671C99.7509 54.1213 99.7509 55.4764 100.001 55.7729C100.459 55.7729 102.874 55.6458 104.873 55.6458C107.62 55.6458 109.036 55.7729 109.743 55.7729C110.035 55.4342 110.118 54.1635 109.952 53.8671C109.161 53.8248 108.578 53.7404 108.037 53.5706C107.287 53.4008 107.079 53.0204 107.037 52.131C106.954 49.8861 106.954 45.1433 106.954 41.925C106.954 41.0356 107.204 40.6121 107.453 40.3578C108.411 39.5112 109.952 38.9183 111.326 38.9183C112.658 38.9183 113.532 39.3418 114.198 39.8925C115.114 40.6543 115.406 41.7557 115.531 42.5601C115.739 44.3811 115.656 47.9807 115.656 51.1146C115.656 52.8084 115.531 53.2319 114.907 53.4435C114.615 53.5706 113.865 53.7404 112.991 53.8244C112.7 54.1213 112.783 55.4342 112.991 55.7307C114.198 55.7307 115.614 55.6036 117.696 55.6036C120.277 55.6036 121.943 55.7307 122.609 55.7307C122.817 55.4764 122.9 54.2484 122.734 53.9093V53.9093ZM134.267 37.7329C132.06 37.7329 130.686 39.4689 130.686 42.1788C130.686 44.9317 131.893 48.1078 135.307 48.1078C135.89 48.1078 136.973 47.8536 137.472 47.2607C138.263 46.4989 138.805 44.974 138.805 43.3646C138.805 39.8498 137.098 37.7325 134.267 37.7325V37.7329ZM133.975 56.4502C133.143 56.4502 132.559 56.7045 132.185 56.9165C130.436 58.0592 129.645 59.1605 129.645 60.4739C129.645 61.7015 130.103 62.6753 131.102 63.5224C132.31 64.5811 133.975 65.0896 136.098 65.0896C140.345 65.0896 142.219 62.7602 142.219 60.4739C142.219 58.8641 141.427 57.8054 139.804 57.2129C138.638 56.7045 136.515 56.4502 133.975 56.4502V56.4502ZM134.267 67.4612C131.727 67.4612 129.895 66.9105 128.313 65.6825C126.772 64.4967 126.106 62.718 126.106 61.4899C126.106 61.1513 126.19 60.2192 126.939 59.3725C127.397 58.8641 128.396 57.8903 130.769 56.2387C130.852 56.1965 130.894 56.1542 130.894 56.0689C130.894 55.9844 130.811 55.8995 130.728 55.8578C128.771 55.0955 128.188 53.8671 128.021 53.1897V53.1048C127.98 52.8506 127.896 52.5968 128.271 52.3426C128.563 52.131 128.979 51.8768 129.437 51.5808C130.145 51.1568 130.894 50.691 131.352 50.3096C131.435 50.2252 131.435 50.1408 131.435 50.0559C131.435 49.971 131.352 49.8861 131.268 49.8443C128.355 48.8701 126.898 46.6678 126.898 43.3646C126.898 41.205 127.855 39.2569 129.562 38.0289C130.728 37.0973 133.642 35.9537 135.557 35.9537H135.682C137.639 35.996 138.721 36.4195 140.262 36.9702C141.095 37.2667 141.886 37.3933 142.969 37.3933C144.592 37.3933 145.3 36.8853 145.882 36.2929C145.924 36.3773 146.008 36.5893 146.049 37.1396C146.091 37.6902 145.924 38.4947 145.508 39.0876C145.175 39.5534 144.426 39.8925 143.676 39.8925H143.468C142.718 39.8076 142.385 39.7227 142.385 39.7227L142.219 39.8076C142.177 39.8925 142.219 39.977 142.26 40.1041L142.302 40.189C142.385 40.5699 142.552 41.713 142.552 42.0099C142.552 45.4824 141.178 47.0064 139.721 48.15C138.305 49.2087 136.682 49.8861 134.849 50.0559C134.808 50.0559 134.642 50.0559 134.267 50.0981C134.059 50.0981 133.767 50.1408 133.725 50.1408H133.684C133.351 50.2252 132.518 50.6488 132.518 51.3683C132.518 52.0035 132.893 52.7662 134.683 52.8933C135.057 52.9355 135.432 52.9355 135.849 52.9782C138.222 53.147 141.178 53.3591 142.552 53.8248C144.467 54.5444 145.674 56.2809 145.674 58.3561C145.674 61.4904 143.468 64.4122 139.804 66.2327C138.014 67.0376 136.223 67.4612 134.267 67.4612V67.4612ZM157.998 37.9445C157.124 37.9445 156.333 38.1556 155.75 38.5791C154.127 39.5956 153.294 41.6286 153.294 44.5926C153.294 50.1408 156.041 54.0369 159.955 54.0369C161.121 54.0369 162.037 53.6977 162.828 53.0204C164.035 52.0035 164.66 49.971 164.66 47.1336C164.66 41.6286 161.954 37.944 157.999 37.944L157.998 37.9445ZM158.748 56.0693C151.67 56.0693 149.13 50.7759 149.13 45.8211C149.13 42.3486 150.504 39.6805 153.252 37.7747C155.209 36.5466 157.541 35.8693 159.622 35.8693C165.035 35.8693 168.824 39.8076 168.824 45.4824C168.824 49.3358 167.325 52.3848 164.452 54.2484C163.078 55.18 160.705 56.0693 158.748 56.0693H158.748V56.0693ZM84.5546 37.944C83.6802 37.944 82.8893 38.1556 82.3059 38.5791C80.6826 39.5956 79.8497 41.6286 79.8497 44.5926C79.8497 50.1408 82.5974 54.0369 86.5113 54.0369C87.6771 54.0369 88.593 53.6977 89.3844 53.0204C90.5912 52.0035 91.2161 49.971 91.2161 47.1336C91.2161 41.6286 88.5515 37.944 84.5546 37.944ZM85.304 56.0693C78.226 56.0693 75.6863 50.7759 75.6863 45.8211C75.6863 42.3486 77.0601 39.6805 79.8078 37.7747C81.765 36.5466 84.0966 35.8693 86.1783 35.8693C91.591 35.8693 95.3795 39.8076 95.3795 45.4824C95.3795 49.3358 93.8807 52.3848 91.0077 54.2484C89.6754 55.18 87.3022 56.0693 85.304 56.0693ZM37.7152 55.6458C37.6318 55.5191 37.5483 55.1378 37.5903 54.672C37.5903 54.3329 37.6737 54.1213 37.7152 54.0369C38.5896 53.9093 39.0476 53.7822 39.547 53.6555C40.3799 53.4435 40.7128 52.9782 40.7543 51.9195C40.8798 49.3785 40.8798 44.5504 40.8378 41.205V41.1201C40.8378 40.7392 40.8378 40.2729 40.3799 39.9343C39.7135 39.5112 38.9226 39.1303 37.8817 38.8329C37.5072 38.7067 37.2573 38.4947 37.2988 38.2409C37.2988 37.9867 37.5488 37.6902 38.0902 37.6053C39.464 37.4782 43.044 36.5893 44.4598 35.9537C44.5433 36.0382 44.6683 36.2929 44.6683 36.6315L44.6267 37.0969C44.5848 37.5631 44.5433 38.1138 44.5433 38.664C44.5433 38.8334 44.7102 38.9605 44.8762 38.9605C44.9597 38.9605 45.0432 38.9183 45.1262 38.8756C47.7908 36.7582 50.2055 35.996 51.4543 35.996C53.495 35.996 55.0772 36.9702 56.2846 39.0027C56.3676 39.1303 56.4511 39.1725 56.576 39.1725C56.6591 39.1725 56.7836 39.1303 56.8255 39.0454C59.2822 37.1396 61.7388 35.996 63.3621 35.996C67.2341 35.996 69.5242 38.9183 69.5242 43.8731C69.5242 45.2704 69.5242 47.0913 69.4827 48.7434C69.4827 50.2252 69.4412 51.5803 69.4412 52.5546C69.4412 52.7657 69.7322 53.4435 70.1901 53.5706C70.7731 53.8671 71.5644 53.9942 72.6053 54.1635H72.6468C72.7302 54.46 72.5638 55.5609 72.3973 55.7729C72.1473 55.7729 71.7724 55.7729 71.3564 55.7307C70.3025 55.6747 69.2473 55.6464 68.1919 55.6458C65.6108 55.6458 64.2784 55.688 62.9872 55.7729C62.9046 55.4342 62.8627 54.4178 62.9872 54.1635C63.737 54.0369 64.1115 53.9093 64.5699 53.7826C65.4028 53.5284 65.6108 53.147 65.6527 52.0461C65.6527 51.2417 65.8187 44.3811 65.5688 42.7295C65.3193 41.0356 64.07 39.0454 61.3219 39.0454C60.2811 39.0454 58.6577 39.469 57.0755 40.6965C56.9925 40.7814 56.9085 40.993 56.9085 41.1201V41.1628C57.0755 42.0517 57.0755 43.0686 57.0755 44.6353V47.3878C57.0755 49.2936 57.0335 51.0723 57.0755 52.427C57.0755 53.3591 57.6169 53.5706 58.0748 53.7404C58.3248 53.7822 58.4908 53.8248 58.6993 53.8671C59.0737 53.952 59.4486 54.0369 60.0316 54.1635C60.115 54.3333 60.115 54.8835 59.9901 55.3493C59.9481 55.6036 59.8646 55.7302 59.8231 55.7729C58.4078 55.7307 56.9505 55.688 54.8273 55.688C54.2029 55.688 53.1201 55.7307 52.2042 55.7307C51.4543 55.7307 50.7469 55.7729 50.3309 55.7729C50.289 55.688 50.2055 55.392 50.2055 54.9258C50.2055 54.5449 50.289 54.2484 50.3724 54.1635C50.5804 54.1213 50.7469 54.0791 50.9553 54.0791C51.4543 53.9942 51.8712 53.9093 52.2872 53.8248C52.9955 53.6133 53.245 53.2319 53.2865 52.3004C53.4115 50.183 53.5365 44.1273 53.245 42.6023C52.7456 40.1463 51.3718 38.9183 49.1646 38.9183C47.8743 38.9183 46.2501 39.5534 44.9182 40.5703C44.7098 40.7392 44.5433 41.1623 44.5433 41.5437V44.0424C44.5433 47.0913 44.5433 50.903 44.5848 52.5546C44.6267 53.0621 44.7928 53.6555 45.7506 53.8671C45.9591 53.9093 46.292 53.9942 46.7085 54.0369L47.4574 54.1635C47.5413 54.4178 47.4994 55.4342 47.3329 55.7729C46.9164 55.7729 46.417 55.7307 45.8336 55.7307C44.9597 55.688 43.8354 55.6458 42.5865 55.6458C41.1293 55.6458 40.0884 55.688 39.2555 55.7307C38.6726 55.6458 38.2147 55.6458 37.7152 55.6458V55.6458Z"
          fill="white"
        />
        <path
          fillRule="evenodd"
          clipRule="evenodd"
          d="M15.8147 65.8098L14.1079 65.2164C14.1079 65.2164 14.3164 56.366 11.1934 55.7309C9.11211 53.2743 11.5272 -48.4463 19.0212 55.3917C19.0212 55.3917 16.4396 56.7042 15.9816 58.9491C15.4817 61.1514 15.8147 65.8098 15.8147 65.8098V65.8098Z"
          fill="white"
        />
        <path
          fillRule="evenodd"
          clipRule="evenodd"
          d="M15.8147 65.8098L14.1079 65.2164C14.1079 65.2164 14.3164 56.366 11.1934 55.7309C9.11211 53.2743 11.5272 -48.4463 19.0212 55.3917C19.0212 55.3917 16.4396 56.7042 15.9816 58.9491C15.4817 61.1514 15.8147 65.8098 15.8147 65.8098V65.8098Z"
          fill="#A6A385"
        />
        <path
          fillRule="evenodd"
          clipRule="evenodd"
          d="M16.7309 57.2557C16.7309 57.2557 31.6782 47.2612 28.1803 26.4678C24.8082 11.3501 16.8559 6.39531 15.9815 4.48948C15.0241 3.13434 14.1078 0.763184 14.1078 0.763184L14.7327 42.8144C14.7327 42.8571 13.4419 55.6885 16.7314 57.2561"
          fill="white"
        />
        <path
          fillRule="evenodd"
          clipRule="evenodd"
          d="M16.7309 57.2557C16.7309 57.2557 31.6782 47.2612 28.1803 26.4678C24.8082 11.3501 16.8559 6.39531 15.9815 4.48948C15.0241 3.13434 14.1078 0.763184 14.1078 0.763184L14.7327 42.8144C14.7327 42.8571 13.4419 55.6885 16.7314 57.2561"
          fill="white"
        />
        <path
          fillRule="evenodd"
          clipRule="evenodd"
          d="M13.2342 57.8053C13.2342 57.8053 -0.797201 48.065 0.0356625 30.9144C0.826567 13.7633 10.7357 5.33601 12.6509 3.81153C13.9002 2.45638 13.9417 1.94792 14.0251 0.592773C14.8995 2.4986 14.733 29.0935 14.8576 32.2269C15.232 44.296 14.1916 55.519 13.2342 57.8053Z"
          fill="white"
        />
        <path
          fillRule="evenodd"
          clipRule="evenodd"
          d="M13.2342 57.8053C13.2342 57.8053 -0.797201 48.065 0.0356625 30.9144C0.826567 13.7633 10.7357 5.33601 12.6509 3.81153C13.9002 2.45638 13.9417 1.94792 14.0251 0.592773C14.8995 2.4986 14.733 29.0935 14.8576 32.2269C15.232 44.296 14.1916 55.519 13.2342 57.8053Z"
          fill="#CACACA"
        />
      </g>
      <defs>
        <clipPath id="clip0_204_162">
          <rect
            width="231"
            height="67"
            fill="white"
            transform="translate(0 0.5)"
          />
        </clipPath>
      </defs>
    </svg>