<svg
      width="254"
      height="154"
      viewBox="0 0 254 154"
      fill="none"
      xmlns="http://www.w3.org/2000/svg"
    >
      <g clipPath="url(#clip0_204_137)">
        <path
          d="M59.9331 40.1501H107.84V43.9757H64.3245V72.7657H105.245V76.5908H64.3245V108.2H108.339V112.025H59.9331V40.1501ZM112.132 40.1501H117.222L139.778 71.759L162.833 40.1496L194.191 0L142.672 75.0812L169.221 112.025H163.931L139.778 78.4029L115.525 112.025H110.335L137.083 75.0807L112.132 40.1501H112.132ZM171.117 43.9757V40.1496H225.711V43.9752H200.559V112.024H196.168V43.9757H171.117V43.9757ZM0 40.1496H5.48928L81.1833 153.942L49.9031 112.024L4.59085 45.586L4.39142 112.025H0V40.1496ZM225.268 107.044C224.371 107.044 223.698 106.347 223.698 105.444C223.698 104.542 224.371 103.843 225.268 103.843C226.176 103.843 226.838 104.541 226.838 105.444C226.838 106.346 226.176 107.044 225.268 107.044ZM229.583 102.833H231.933C231.965 104.111 232.894 104.971 234.261 104.971C235.789 104.971 236.654 104.047 236.654 102.317V91.3579H239.047V102.328C239.047 105.444 237.252 107.238 234.283 107.238C231.495 107.238 229.583 105.497 229.583 102.833V102.833ZM242.176 102.694H244.547C244.75 104.165 246.182 105.1 248.243 105.1C250.166 105.1 251.576 104.101 251.576 102.725C251.576 101.544 250.678 100.835 248.638 100.351L246.651 99.8678C243.863 99.2119 242.593 97.8583 242.593 95.5807C242.593 92.8196 244.836 90.9821 248.2 90.9821C251.33 90.9821 253.616 92.8191 253.754 95.4302H251.426C251.202 94.0013 249.962 93.1092 248.168 93.1092C246.278 93.1092 245.018 94.0227 245.018 95.4192C245.018 96.5256 245.829 97.16 247.837 97.6325L249.535 98.0516C252.697 98.7932 254 100.083 254 102.414C254 105.379 251.714 107.238 248.062 107.238C244.644 107.238 242.347 105.465 242.176 102.693V102.694Z"
          fill="white"
        />
      </g>
      <defs>
        <clipPath id="clip0_204_137">
          <rect width="254" height="154" fill="white" />
        </clipPath>
      </defs>
    </svg>