<svg
      xmlns="http://www.w3.org/2000/svg"
      width="151"
      height="94"
      fill="none"
      viewBox="0 0 151 94"
    >
      <g clipPath="url(#a)">
        <path
          fill="white"
          d="M74.6 93.2a3 3 0 0 1-1.4-.3l-4.5-2.7c-.7-.4-.4-.6-.2-.6 1-.3 1.1-.4 2-1h.4l3.5 2.2h.4l13.6-8c.2 0 .2-.1.2-.3V66.7c0-.2 0-.3-.2-.4l-13.6-7.8c-.1-.1-.3-.1-.4 0l-13.6 7.8-.2.4v15.8c0 .1 0 .3.2.4l3.7 2.1c2 1 3.3-.2 3.3-1.4V68.1c0-.2.2-.4.4-.4h1.7c.2 0 .5.1.5.4v15.5c0 2.8-1.5 4.3-4 4.3-.9 0-1.5 0-3.2-.8l-3.6-2a2.9 2.9 0 0 1-1.4-2.6V66.7c0-1 .5-2 1.4-2.5l13.6-7.9a3 3 0 0 1 2.9 0l13.6 8c.9.5 1.4 1.4 1.4 2.4v15.8c0 1-.5 2-1.4 2.5L76 93l-1.5.2Zm4.2-10.8c-6 0-7.2-2.8-7.2-5 0-.3.2-.5.5-.5h1.7c.2 0 .4.1.4.3.3 1.9 1 2.7 4.7 2.7 2.8 0 4-.6 4-2.1 0-1-.3-1.6-4.7-2-3.8-.4-6-1.2-6-4.2 0-2.8 2.2-4.4 6.1-4.4 4.4 0 6.5 1.5 6.8 4.8v.3l-.4.1H83a.4.4 0 0 1-.4-.3c-.4-1.9-1.5-2.5-4.3-2.5-3.1 0-3.5 1.1-3.5 2 0 1 .5 1.2 4.7 1.8 4.2.5 6.2 1.3 6.2 4.3s-2.5 4.7-6.9 4.7ZM32.5 31.5c0-.6-.4-1.2-1-1.5l-14.4-8.3a2 2 0 0 0-.8-.3h-.1c-.3 0-.6.1-.8.3L1 30c-.6.3-1 .9-1 1.5L.2 54c0 .3.2.6.4.7.3.2.7.2.9 0l8.6-5c.5-.2.9-.8.9-1.4V37.8c0-.6.3-1.2.9-1.5l3.6-2.1.9-.3c.3 0 .6 0 .8.3l3.7 2c.5.4.9 1 .9 1.6v10.5c0 .6.3 1.2.9 1.5l8.6 5h.8c.3-.2.5-.5.5-.8V31.5ZM102 .6a1 1 0 0 0-1 0c-.2.2-.4.4-.4.8v22.2c0 .2 0 .4-.3.6h-.6L96.1 22a1.8 1.8 0 0 0-1.8 0L80 30.5c-.5.3-.9.8-.9 1.5v16.7c0 .6.4 1.2.9 1.5l14.4 8.4a1.8 1.8 0 0 0 1.8 0l14.4-8.4c.6-.3 1-.9 1-1.5V7c0-.7-.4-1.3-1-1.6L102 .6Zm-1.4 42.6c0 .2 0 .3-.2.4l-5 2.8a.5.5 0 0 1-.4 0l-5-2.8-.1-.4v-5.8c0-.1 0-.3.2-.3l4.9-3a.5.5 0 0 1 .4 0l5 3 .2.3v5.8ZM150 37.3c.6-.3.9-.9.9-1.5v-4c0-.7-.4-1.3-.9-1.6L135.7 22a1.8 1.8 0 0 0-1.8 0l-14.4 8.3c-.6.4-1 1-1 1.6v16.7c0 .6.4 1.2 1 1.5l14.3 8.2c.6.3 1.2.3 1.7 0l8.7-4.8c.3-.2.5-.5.5-.8 0-.3-.2-.6-.5-.8l-14.5-8.3a.9.9 0 0 1-.4-.8v-5.2c0-.3.1-.6.4-.8l4.5-2.6a.8.8 0 0 1 1 0l4.4 2.6c.3.2.5.5.5.8v4c0 .4.2.7.4.8.3.2.6.2 1 0l8.5-5Z"
        />
        <path
          fill="#DEDEDE"
          d="M134.6 36.5a.3.3 0 0 1 .3 0l2.8 1.6.1.3v3.2l-.1.4-2.8 1.6a.3.3 0 0 1-.3 0l-2.8-1.6a.4.4 0 0 1-.2-.4v-3.2l.2-.3 2.8-1.6Z"
        />
        <mask
          id="b"
          width="33"
          height="38"
          x="39"
          y="21"
          maskUnits="userSpaceOnUse"
        >
          <path
            fill="white"
            d="M56.6 22a1.8 1.8 0 0 0-1.7 0l-14.4 8.2c-.5.4-.8 1-.8 1.6v16.6c0 .6.3 1.2.8 1.5L55 58.2a1.8 1.8 0 0 0 1.7 0L71 50c.5-.3.8-.9.8-1.5V31.8c0-.7-.3-1.2-.8-1.6L56.6 22Z"
          />
        </mask>
        <g mask="url(#b)">
          <path
            fill="white"
            d="M56.6 22a1.8 1.8 0 0 0-1.7 0l-14.4 8.2c-.5.4-.8 1-.8 1.6v16.6c0 .6.3 1.2.8 1.5L55 58.2a1.8 1.8 0 0 0 1.7 0L71 50c.5-.3.8-.9.8-1.5V31.8c0-.7-.3-1.2-.8-1.6L56.6 22Z"
          />
          <path
            fill="white"
            d="m54.8 22-14.3 8.2c-.6.4-1 1-1 1.6v16.6c0 .4.2.8.5 1.1L56 21.7a2 2 0 0 0-1.3.2ZM56.2 58.4c.2 0 .3 0 .5-.2L71 50c.6-.3 1-.9 1-1.5V31.8c0-.5-.3-1-.6-1.2L56.2 58.4Z"
          />
          <path
            fill="white"
            d="M71 30.2 56.6 22l-.5-.1L40 49.6l.5.4 14.4 8.3c.4.2.9.3 1.3.2l15.2-28-.4-.3Z"
          />
          <path
            fill="#EFEFEF"
            d="M72 48.4V31.8c0-.7-.5-1.2-1-1.6L56.6 22l-.6-.2 15.8 27.1.1-.4Z"
          />
          <path
            fill="#CCCCCC"
            d="M40.5 30.2c-.6.4-1 1-1 1.6v16.6c0 .6.5 1.2 1 1.5l14.4 8.3c.3.3.7.3 1.1.3L40.6 30.2h-.1Z"
          />
          <path
            fill="#E4E4E4"
            fillRule="evenodd"
            d="M71 50c.4-.3.8-.7.9-1.2L56 21.8c-.4-.1-.9-.1-1.3.1l-14.3 8.3L56 58.5l.6-.2L71 49.9Z"
            clipRule="evenodd"
          />
          <path
            fill="white"
            fillRule="evenodd"
            d="m71 50-14.3 8.2a2 2 0 0 1-.7.3l.3.5 16-9.3v-.2l-.5-.7c0 .5-.4.9-.8 1.1Z"
            clipRule="evenodd"
          />
          <path
            fill="white"
            fillRule="evenodd"
            d="m71 50-14.3 8.2a2 2 0 0 1-.7.3l.3.5 16-9.3v-.2l-.5-.7c0 .5-.4.9-.8 1.1Z"
            clipRule="evenodd"
          />
        </g>
      </g>
      <defs>
        <clipPath id="a">
          <rect
            width="151"
            height="93"
            fill="white"
            transform="translate(0 0.5)"
          />
        </clipPath>
      </defs>
    </svg>