<svg
      width="79"
      height="75"
      viewBox="0 0 79 75"
      fill="none"
      xmlns="http://www.w3.org/2000/svg"
    >
      <g clipPath="url(#clip0_211_213)">
        <path
          d="M39.0802 0.0375977C19.4238 0.0375977 20.6496 8.29309 20.6496 8.29309L20.6721 16.847H39.4254V19.4144H13.2308C13.2308 19.4144 0.651245 18.0312 0.651245 37.2401C0.651245 56.4491 11.6277 55.7653 11.6277 55.7653H18.1756V46.8539C18.1756 46.8539 17.824 36.2237 28.9811 36.2237H47.5795C47.5795 36.2237 58.0303 36.3854 58.0303 26.439V9.99019C58.0303 9.99019 59.614 0.0375977 39.077 0.0375977H39.0802ZM28.7392 5.78784C30.6035 5.78784 32.1131 7.24872 32.1131 9.05771C32.1131 10.8636 30.6035 12.3245 28.7392 12.3245C26.8716 12.3245 25.3653 10.8636 25.3653 9.05771C25.3653 7.24872 26.8716 5.78784 28.7392 5.78784Z"
          fill="white"
        />
        <path
          d="M39.638 74.635C59.2879 74.635 58.0622 66.3795 58.0622 66.3795L58.0397 57.8256H39.2864V55.2582H65.4874C65.4874 55.2582 78.067 56.6414 78.067 37.4324C78.067 18.2235 67.0873 18.9073 67.0873 18.9073H60.5394V27.8186C60.5394 27.8186 60.891 38.4488 49.7339 38.4488H31.1387C31.1387 38.4488 20.688 38.2872 20.688 48.2336V64.6824C20.688 64.6824 19.101 74.635 39.638 74.635ZM49.979 68.8847C48.1115 68.8847 46.6051 67.4239 46.6051 65.6149C46.6051 63.809 48.1115 62.3481 49.979 62.3481C51.8434 62.3481 53.353 63.809 53.353 65.6149C53.353 67.4239 51.8434 68.8847 49.979 68.8847Z"
          fill="white"
        />
      </g>
      <defs>
        <clipPath id="clip0_211_213">
          <rect
            width="77.4128"
            height="74.5978"
            fill="white"
            transform="translate(0.651245 0.0375977)"
          />
        </clipPath>
      </defs>
    </svg>