<svg width="101" height="102" viewBox="0 0 101 102" fill="none" xmlns="http://www.w3.org/2000/svg">
      <path d="M101 49.6783C101 42.9208 92.6212 36.516 79.7732 32.5465C82.74 19.3247 81.4228 8.80175 75.6153 5.4315C74.2081 4.63556 72.6155 4.23492 71.003 4.27125V8.90375C71.9499 8.90375 72.7116 9.095 73.3513 9.44775C76.1498 11.0713 77.366 17.2423 76.4191 25.1855C76.1919 27.1405 75.8215 29.1975 75.367 31.297C71.0646 30.25 66.6979 29.4932 62.296 29.0317C59.6736 25.378 56.8125 21.9051 53.732 18.6363C60.4443 12.3378 66.7442 8.88675 71.0283 8.88675V4.25C65.3638 4.25 57.953 8.32575 50.4579 15.3935C42.9671 8.3725 35.552 4.335 29.8918 4.335V8.9675C34.1548 8.9675 40.4758 12.4015 47.188 18.6575C44.3053 21.7175 41.4226 25.1855 38.683 29.0317C34.272 29.4881 29.8975 30.2521 25.5909 31.3182C25.1153 29.24 24.766 27.2255 24.5178 25.2918C23.5498 17.3443 24.745 11.1733 27.5267 9.53275C28.1411 9.15875 28.9449 8.98875 29.8918 8.98875V4.35625C28.1664 4.35625 26.5967 4.73025 25.2416 5.5165C19.4551 8.88675 18.159 19.3843 21.1427 32.5678C8.33671 36.5628 0 42.942 0 49.6783C0 56.4358 8.37879 62.8405 21.2268 66.8057C18.26 80.0317 19.5772 90.5548 25.3847 93.9208C26.7229 94.7113 28.2884 95.0852 30.0138 95.0852C35.6783 95.0852 43.0891 91.0095 50.5842 83.9417C58.075 90.967 65.4859 95.0003 71.1503 95.0003C72.7751 95.0349 74.3799 94.633 75.8005 93.8358C81.587 90.4698 82.8831 79.9723 79.8994 66.7888C92.6633 62.8193 101 56.4145 101 49.6783ZM74.1929 35.8105C73.3933 38.5894 72.4664 41.3293 71.4154 44.0215C69.6949 40.6417 67.8057 37.3522 65.7552 34.1657C68.68 34.6035 71.4996 35.1432 74.1971 35.8105H74.1929ZM64.7663 57.953C63.1629 60.758 61.5132 63.4228 59.8046 65.8963C53.6278 66.4461 47.4155 66.4532 41.2375 65.9175C37.6938 60.8055 34.5948 55.3935 31.9749 49.742C34.5907 44.0772 37.6766 38.6461 41.1996 33.507C47.3749 32.9561 53.5858 32.9475 59.7625 33.4815C61.4711 35.955 63.1418 38.5985 64.7452 41.3865C66.3107 44.1065 67.7331 46.869 69.0293 49.657C67.7187 52.4788 66.2966 55.2464 64.7663 57.953V57.953ZM71.4154 55.25C72.5264 58.0337 73.4775 60.8217 74.256 63.5247C71.5627 64.192 68.7179 64.753 65.7763 65.1865C67.8183 61.971 69.7004 58.6547 71.4154 55.25V55.25ZM50.5421 77.435C48.6273 75.4375 46.7125 73.2147 44.8188 70.7795C46.6704 70.8645 48.5642 70.9282 50.479 70.9282C52.4148 70.9282 54.3296 70.8857 56.2023 70.7795C54.3506 73.2147 52.4358 75.4375 50.5421 77.435ZM35.2238 65.1865C32.3863 64.7713 29.5693 64.2239 26.7818 63.546C27.5435 60.8642 28.4904 58.0975 29.5593 55.335C30.4052 56.9925 31.2932 58.6585 32.2611 60.3245C33.229 61.9863 34.2138 63.6098 35.2238 65.1865ZM50.4369 21.9215C52.3517 23.919 54.2665 26.1417 56.1602 28.577C54.3085 28.492 52.4148 28.4283 50.5 28.4283C48.5642 28.4283 46.6494 28.4707 44.7767 28.577C46.6283 26.1417 48.5431 23.919 50.4369 21.9215ZM35.2027 34.17C33.1611 37.3785 31.2791 40.6876 29.5635 44.0853C28.4829 41.3757 27.5349 38.6141 26.7229 35.8105C29.4163 35.1645 32.2611 34.6035 35.2027 34.17ZM16.5724 60.197C9.28358 57.0605 4.57025 52.9423 4.57025 49.6783C4.57025 46.4143 9.28358 42.2747 16.5724 39.1595C18.3399 38.3902 20.2758 37.7018 22.2747 37.06C23.4488 41.1315 24.9933 45.373 26.9039 49.7208C25.1 53.81 23.5745 58.0188 22.3378 62.3178C20.3829 61.7064 18.4587 60.9987 16.5724 60.197V60.197ZM27.6488 89.9045C24.8502 88.2895 23.634 82.11 24.5809 74.171C24.8081 72.216 25.1785 70.1548 25.633 68.0553C29.6645 69.054 34.0707 69.8233 38.704 70.3248C41.3266 73.9784 44.1876 77.4513 47.268 80.7203C40.5557 87.0188 34.2558 90.4698 29.9718 90.4698C29.1635 90.4787 28.3656 90.286 27.6488 89.9088V89.9045ZM76.4823 74.0648C77.4502 82.008 76.255 88.1833 73.4733 89.8238C72.8589 90.1978 72.0551 90.3635 71.1082 90.3635C66.8452 90.3635 60.5243 86.9338 53.812 80.6735C56.6947 77.622 59.5774 74.1497 62.317 70.3035C66.728 69.8472 71.1025 69.0832 75.4091 68.017C75.8847 70.1165 76.2508 72.131 76.4823 74.0648V74.0648ZM84.4065 60.197C82.639 60.9662 80.7032 61.6547 78.7043 62.2965C77.4459 57.9756 75.8993 53.7457 74.0751 49.6357C75.9688 45.3135 77.488 41.0933 78.6411 37.0388C80.6822 37.6805 82.6138 38.3902 84.4276 39.1595C91.7164 42.296 96.4298 46.4143 96.4298 49.6783C96.4087 52.9423 91.6954 57.0817 84.4065 60.197V60.197Z" fill="white"/>
        <path d="M50.4784 59.1813C52.9741 59.1813 55.3675 58.1801 57.1322 56.3979C58.8969 54.6158 59.8883 52.1986 59.8883 49.6783C59.8883 47.1579 58.8969 44.7408 57.1322 42.9587C55.3675 41.1765 52.9741 40.1753 50.4784 40.1753C47.9828 40.1753 45.5894 41.1765 43.8247 42.9587C42.06 44.7408 41.0686 47.1579 41.0686 49.6783C41.0686 52.1986 42.06 54.6158 43.8247 56.3979C45.5894 58.1801 47.9828 59.1813 50.4784 59.1813V59.1813Z" fill="white"/>
    </svg>