<svg width="85" height="84" viewBox="0 0 84 84" fill="none" xmlns="http://www.w3.org/2000/svg">
            <path d="M0 0H84V84H0V0ZM49.98 69.3467C52.3133 73.92 57.0267 77.42 64.4 77.42C71.8667 77.42 77.4667 73.5467 77.4667 66.4067C77.4667 59.8267 73.6867 56.8867 66.9667 53.9933L65.0067 53.1533C61.6 51.7067 60.1533 50.7267 60.1533 48.3933C60.1533 46.48 61.6 44.9867 63.9333 44.9867C66.1733 44.9867 67.6667 45.9667 69.02 48.3933L75.1333 44.3333C72.5667 39.8533 68.9267 38.1267 63.9333 38.1267C56.8867 38.1267 52.36 42.6067 52.36 48.5333C52.36 54.9733 56.14 58.0067 61.8333 60.4333L63.7933 61.2733C67.4333 62.86 69.58 63.84 69.58 66.5467C69.58 68.7867 67.48 70.42 64.2133 70.42C60.34 70.42 58.1 68.4133 56.42 65.6133L49.98 69.3467ZM46.6667 38.5H23.3333V45.5H30.3333V79.3333H38.5V45.5H46.6667V38.5Z" fill="white" />
        </svg>