<svg
      width="101"
      height="114"
      viewBox="0 0 69 78"
      fill="none"
      xmlns="http://www.w3.org/2000/svg"
    >
      <g clipPath="url(#clip0_204_181)">
        <path
          d="M67.6987 35.9602L37.5805 6.1618C36.7467 5.33783 35.6164 4.875 34.4378 4.875C33.2592 4.875 32.1288 5.33783 31.295 6.1618L25.0327 12.3515L32.9677 20.2003C37.1354 18.8079 41.0813 22.7551 39.6505 26.8546L47.299 34.42C52.5711 32.6224 56.7218 39.1427 52.762 43.0564C48.6821 47.092 41.9484 42.6192 44.137 37.3679L36.9983 30.3159V48.879C40.895 50.7894 40.4267 55.2546 38.3968 57.2579C37.405 58.2383 36.0602 58.7891 34.658 58.7891C33.2558 58.7891 31.911 58.2383 30.9192 57.2579C28.2131 54.5766 29.2142 50.1114 32.6519 48.7266V29.9884C29.4483 28.6919 28.8631 25.3053 29.781 23.1329L21.9585 15.3862L1.30157 35.8216C0.468181 36.6461 0 37.7643 0 38.9302C0 40.0961 0.468181 41.2142 1.30157 42.0388L31.429 71.8372C32.2625 72.6611 33.3926 73.1238 34.571 73.1238C35.7493 73.1238 36.8794 72.6611 37.713 71.8372L67.6987 42.1774C68.5321 41.3529 69.0003 40.2347 69.0003 39.0688C69.0003 37.9029 68.5321 36.7847 67.6987 35.9602V35.9602Z"
          fill="white"
        />
      </g>
      <defs>
        <clipPath id="clip0_204_181">
          <rect width="69" height="78" fill="white" />
        </clipPath>
      </defs>
    </svg>